<svg width="50" height="51" viewBox="0 0 50 51" fill="none" xmlns="http://www.w3.org/2000/svg">
<path d="M25 47.1701C36.83 47.1701 46.42 37.58 46.42 25.7501C46.42 13.9201 36.83 4.33008 25 4.33008C13.1701 4.33008 3.58002 13.9201 3.58002 25.7501C3.58002 37.58 13.1701 47.1701 25 47.1701Z" fill="#6F2CFF"/>
<path d="M20.54 24.34C22.2245 24.34 23.59 22.9745 23.59 21.29C23.59 19.6055 22.2245 18.24 20.54 18.24C18.8555 18.24 17.49 19.6055 17.49 21.29C17.49 22.9745 18.8555 24.34 20.54 24.34Z" fill="#D15187"/>
<path d="M29.46 24.34C31.1444 24.34 32.51 22.9745 32.51 21.29C32.51 19.6055 31.1444 18.24 29.46 18.24C27.7755 18.24 26.41 19.6055 26.41 21.29C26.41 22.9745 27.7755 24.34 29.46 24.34Z" fill="#D15187"/>
<path d="M20.54 33.2599C22.2245 33.2599 23.59 31.8944 23.59 30.2099C23.59 28.5254 22.2245 27.1599 20.54 27.1599C18.8555 27.1599 17.49 28.5254 17.49 30.2099C17.49 31.8944 18.8555 33.2599 20.54 33.2599Z" fill="#D15187"/>
<path d="M29.46 33.2599C31.1444 33.2599 32.51 31.8944 32.51 30.2099C32.51 28.5254 31.1444 27.1599 29.46 27.1599C27.7755 27.1599 26.41 28.5254 26.41 30.2099C26.41 31.8944 27.7755 33.2599 29.46 33.2599Z" fill="#D15187"/>
</svg>
