<svg width="50" height="51" viewBox="0 0 50 51" fill="none" xmlns="http://www.w3.org/2000/svg">
<path d="M25 4.33008C23.787 4.33089 22.5869 4.57909 21.4731 5.05951C20.3593 5.53993 19.3552 6.24247 18.5222 7.12418C17.6891 8.00589 17.0447 9.04824 16.6282 10.1875C16.2117 11.3268 16.032 12.539 16.1 13.7501L16.6 22.1701H33.4L33.9 13.7501C33.968 12.539 33.7883 11.3268 33.3718 10.1875C32.9553 9.04824 32.3109 8.00589 31.4778 7.12418C30.6448 6.24247 29.6407 5.53993 28.5269 5.05951C27.4131 4.57909 26.213 4.33089 25 4.33008V4.33008Z" stroke="#6F2CFF" stroke-width="2.14" stroke-miterlimit="10"/>
<path d="M41.64 47.1699H8.36C8.13423 47.1701 7.91076 47.1247 7.70292 47.0365C7.49508 46.9484 7.30714 46.8192 7.15033 46.6568C6.99352 46.4944 6.87105 46.3021 6.79024 46.0913C6.70943 45.8805 6.67193 45.6555 6.68 45.4299L7.6 22.5099C7.62057 22.0784 7.80661 21.6713 8.11947 21.3734C8.43233 21.0754 8.84795 20.9094 9.28 20.9099H40.72C41.152 20.9094 41.5677 21.0754 41.8805 21.3734C42.1934 21.6713 42.3794 22.0784 42.4 22.5099L43.32 45.4299C43.3281 45.6555 43.2906 45.8805 43.2098 46.0913C43.1289 46.3021 43.0065 46.4944 42.8497 46.6568C42.6928 46.8192 42.5049 46.9484 42.2971 47.0365C42.0892 47.1247 41.8658 47.1701 41.64 47.1699Z" fill="#6F2CFF"/>
<path d="M42.4 22.5099L42.5 25.1099H39.18V29.3099H10.82V25.1099H7.5L7.6 22.5099C7.62057 22.0784 7.80661 21.6713 8.11947 21.3734C8.43233 21.0754 8.84796 20.9094 9.28 20.9099H40.72C41.152 20.9094 41.5677 21.0754 41.8805 21.3734C42.1934 21.6713 42.3794 22.0784 42.4 22.5099Z" fill="#D15187"/>
<path d="M39.19 29.3101H10.82V34.5601H39.19V29.3101Z" fill="#A445BB"/>
<path d="M27.63 34.5599C27.632 35.0805 27.4794 35.59 27.1916 36.0238C26.9039 36.4576 26.4938 36.7963 26.0134 36.9969C25.533 37.1975 25.0039 37.251 24.4931 37.1506C23.9823 37.0503 23.5127 36.8006 23.1439 36.4332C22.7751 36.0658 22.5236 35.5972 22.4213 35.0867C22.319 34.5763 22.3705 34.047 22.5693 33.5658C22.768 33.0847 23.1051 32.6733 23.5378 32.3839C23.9705 32.0944 24.4794 31.9399 25 31.9399C25.6958 31.9399 26.3632 32.2157 26.8562 32.7067C27.3491 33.1978 27.6274 33.8642 27.63 34.5599Z" fill="#D15187"/>
</svg>
