<svg width="50" height="51" viewBox="0 0 50 51" fill="none" xmlns="http://www.w3.org/2000/svg">
<path d="M40.91 30.98C41.6844 30.98 42.4271 30.6723 42.9748 30.1247C43.5224 29.5771 43.83 28.8344 43.83 28.06C43.8282 27.7784 43.7844 27.4986 43.7 27.23L38.13 28.9C38.3069 29.5002 38.6733 30.0271 39.1743 30.402C39.6754 30.7769 40.2842 30.9796 40.91 30.98Z" fill="#D15187"/>
<path d="M40.91 25.1399C40.1373 25.1425 39.3972 25.4513 38.8517 25.9987C38.3063 26.546 38 27.2872 38 28.0599C38.0065 28.3451 38.0536 28.628 38.14 28.8999L43.71 27.2299C43.531 26.6262 43.1617 26.0965 42.6571 25.7199C42.1525 25.3432 41.5397 25.1398 40.91 25.1399Z" fill="#A445BB"/>
<path d="M6.16998 28.06C6.16927 28.7596 6.42065 29.4361 6.87807 29.9655C7.33549 30.4949 7.96833 30.8418 8.66067 30.9426C9.353 31.0434 10.0585 30.8914 10.6479 30.5144C11.2373 30.1375 11.6711 29.5608 11.87 28.89L6.29998 27.23C6.2156 27.4986 6.17178 27.7784 6.16998 28.06Z" fill="#D15187"/>
<path d="M9.08999 25.1399C8.46203 25.1419 7.85147 25.3464 7.34889 25.7229C6.8463 26.0994 6.47848 26.6278 6.29999 27.2299L11.87 28.8899C11.9578 28.6218 12.005 28.342 12.01 28.0599C12.01 27.6764 11.9345 27.2967 11.7877 26.9425C11.641 26.5882 11.4259 26.2663 11.1547 25.9951C10.8836 25.724 10.5617 25.5089 10.2074 25.3622C9.85315 25.2154 9.47345 25.1399 9.08999 25.1399Z" fill="#A445BB"/>
<path d="M25 36.0201C29.8822 36.0201 33.84 32.0623 33.84 27.1801C33.84 22.2979 29.8822 18.3401 25 18.3401C20.1178 18.3401 16.16 22.2979 16.16 27.1801C16.16 32.0623 20.1178 36.0201 25 36.0201Z" fill="#A445BB"/>
<path d="M48.88 23.64H33.1C32.472 22.2011 31.4722 20.9554 30.2033 20.031C28.9344 19.1065 27.4421 18.5367 25.88 18.38V12.38C25.8813 12.2662 25.8601 12.1533 25.8174 12.0478C25.7748 11.9423 25.7117 11.8463 25.6317 11.7654C25.5517 11.6845 25.4564 11.6203 25.3514 11.5764C25.2464 11.5326 25.1338 11.51 25.02 11.51C24.9062 11.51 24.7936 11.5326 24.6886 11.5764C24.5836 11.6203 24.4883 11.6845 24.4083 11.7654C24.3283 11.8463 24.2652 11.9423 24.2226 12.0478C24.1799 12.1533 24.1587 12.2662 24.16 12.38V18.38C22.5979 18.5367 21.1056 19.1065 19.8367 20.031C18.5678 20.9554 17.568 22.2011 16.94 23.64H1.12C0.889262 23.64 0.667974 23.7317 0.504817 23.8948C0.34166 24.058 0.25 24.2793 0.25 24.51V24.75C0.250152 24.9379 0.310416 25.1207 0.421975 25.2719C0.533533 25.423 0.690531 25.5345 0.87 25.59L6.3 27.23C6.49202 26.5508 6.92438 25.9645 7.51655 25.5803C8.10872 25.1962 8.82033 25.0404 9.51885 25.1419C10.2174 25.2434 10.8552 25.5954 11.3135 26.1322C11.7718 26.6691 12.0193 27.3542 12.01 28.06C12.005 28.3421 11.9578 28.6219 11.87 28.89L16.76 30.36V30.15C18.04 32.96 21.24 34.25 24.99 34.25C28.74 34.25 31.99 32.95 33.23 30.13V30.36L38.11 28.9C38.0236 28.6281 37.9765 28.3452 37.97 28.06C37.9607 27.3542 38.2082 26.6691 38.6665 26.1322C39.1248 25.5954 39.7626 25.2434 40.4612 25.1419C41.1597 25.0404 41.8713 25.1962 42.4635 25.5803C43.0556 25.9645 43.488 26.5508 43.68 27.23L49.11 25.6C49.2895 25.5445 49.4465 25.433 49.558 25.2819C49.6696 25.1307 49.7298 24.9479 49.73 24.76V24.51C49.7301 24.2827 49.6412 24.0644 49.4823 23.9018C49.3234 23.7392 49.1073 23.6452 48.88 23.64Z" fill="#6F2CFF"/>
<path d="M30.3 22.76V23.64L25 25.41L19.7 23.64V22.76H30.3Z" fill="white"/>
</svg>
