<svg width="50" height="51" viewBox="0 0 50 51" fill="none" xmlns="http://www.w3.org/2000/svg">
<path d="M25 43.53C25.05 41.01 25.59 32.46 30.66 25.53C30.91 25.18 31.17 24.85 31.43 24.53C30.93 14.85 25 7.22998 25 7.22998C25 7.22998 19.07 14.85 18.57 24.49C18.83 24.81 19.09 25.14 19.34 25.49C24.41 32.46 25 41.01 25 43.53Z" fill="#6F2CFF"/>
<path d="M18.57 24.49C12.51 16.98 3.23001 14.3 3.23001 14.3C3.23001 14.3 2.87001 24.8101 8.88001 33.09C14.89 41.37 25 44.2701 25 44.2701C25 44.2701 18.54 35.98 18.54 25.75C18.54 25.33 18.55 24.91 18.57 24.49Z" fill="#D15187"/>
<path d="M25 43.53C24.95 41.01 24.41 32.46 19.34 25.53C19.09 25.18 18.83 24.85 18.57 24.53C18.57 24.95 18.57 25.37 18.57 25.79C18.54 35.98 25 44.27 25 44.27C25 44.27 25 44.01 25 43.53Z" fill="#A445BB"/>
<path d="M46.77 14.3C46.77 14.3 37.49 16.98 31.43 24.49C31.43 24.91 31.43 25.33 31.43 25.75C31.46 35.98 25 44.2701 25 44.2701C25 44.2701 35.1 41.3601 41.12 33.09C47.14 24.82 46.77 14.3 46.77 14.3Z" fill="#D15187"/>
<path d="M31.43 24.49C31.17 24.81 30.91 25.14 30.66 25.49C25.59 32.49 25.05 41.01 25 43.49C25 43.97 25 44.23 25 44.23C25 44.23 31.46 35.98 31.46 25.75C31.46 25.33 31.45 24.91 31.43 24.49Z" fill="#A445BB"/>
</svg>
