<svg width="22" height="17" viewBox="0 0 22 17" fill="none" xmlns="http://www.w3.org/2000/svg">
<g clip-path="url(#clip0_1_692)">
<path d="M22.37 7.96V9.58C22.37 11.31 22.15 13.04 22.15 13.04C22.15 13.04 21.95 14.51 21.31 15.16C20.49 16.01 19.58 16.02 19.16 16.07C16.17 16.29 11.68 16.29 11.68 16.29C11.68 16.29 6.12998 16.24 4.41998 16.08C3.93998 15.99 2.88 16.01 2.06 15.16C1.42 14.51 1.21002 13.04 1.21002 13.04C1.21002 13.04 1 11.31 1 9.58V7.96C1 6.23 1.21002 4.49 1.21002 4.49C1.21002 4.49 1.42 3.02 2.06 2.37C2.88 1.52 3.79001 1.52 4.20001 1.47C7.19001 1.25 11.68 1.25 11.68 1.25H11.69C11.69 1.25 16.17 1.25 19.16 1.47C19.58 1.52 20.49 1.52 21.31 2.37C21.95 3.02 22.15 4.49 22.15 4.49C22.15 4.49 22.37 6.23 22.37 7.96ZM16.04 8.78L9.71002 6V11.54L16.04 8.78Z" fill="white"/>
</g>
<defs>
<clipPath id="clip0_1_692">
<rect width="22" height="16" fill="white" transform="translate(0 0.25)"/>
</clipPath>
</defs>
</svg>
