<svg width="17" height="18" viewBox="0 0 17 18" fill="none" xmlns="http://www.w3.org/2000/svg">
<g clip-path="url(#clip0_1_682)">
<path d="M11.74 0.299999C12.62 0.339999 13.22 0.479999 13.75 0.689999C14.3066 0.894111 14.8093 1.22243 15.22 1.65C15.69 2.11 15.97 2.57 16.18 3.12C16.39 3.65 16.53 4.25 16.57 5.14C16.61 6.02 16.62 6.3 16.62 8.56C16.62 10.82 16.61 11.1 16.57 11.99C16.5569 12.6807 16.4249 13.364 16.18 14.01C15.9734 14.5654 15.6454 15.0676 15.22 15.48C14.76 15.94 14.3 16.23 13.75 16.44C13.22 16.64 12.62 16.78 11.74 16.82C10.85 16.87 10.57 16.87 8.31 16.87C6.05 16.87 5.77 16.87 4.88 16.82C4.19366 16.8048 3.51453 16.6764 2.87 16.44C2.31457 16.2326 1.81016 15.9083 1.39093 15.489C0.971695 15.0698 0.647424 14.5654 0.440002 14.01C0.195059 13.364 0.0631184 12.6807 0.0499878 11.99C0.00998779 11.1 0 10.82 0 8.56C0 6.3 0.00998779 6.02 0.0499878 5.14C0.0899878 4.25 0.230002 3.65 0.440002 3.12C0.644269 2.56588 0.968713 2.06386 1.39001 1.65C1.86001 1.18 2.32 0.899999 2.87 0.689999C3.51243 0.444831 4.1925 0.312878 4.88 0.299999C5.77 0.259999 6.05 0.25 8.31 0.25C10.57 0.25 10.85 0.259999 11.74 0.299999ZM8.31 1.75C6.09 1.75 5.83001 1.76 4.95001 1.8C4.14001 1.83 3.69997 1.97 3.40997 2.08C3.04744 2.21242 2.71822 2.42242 2.44531 2.69533C2.1724 2.96824 1.96243 3.29747 1.83002 3.66C1.72002 3.95 1.57999 4.39 1.54999 5.2C1.50042 6.31927 1.48376 7.43975 1.5 8.56C1.5 10.78 1.50999 11.04 1.54999 11.92C1.57999 12.73 1.72002 13.17 1.83002 13.46C1.98002 13.85 2.16001 14.13 2.45001 14.42C2.74001 14.71 3.01997 14.89 3.40997 15.04C3.69997 15.16 4.14001 15.29 4.95001 15.33C5.83001 15.37 6.09 15.38 8.31 15.38C10.53 15.38 10.79 15.37 11.67 15.33C12.1964 15.3252 12.7179 15.227 13.21 15.04C13.6 14.89 13.88 14.71 14.17 14.42C14.46 14.13 14.64 13.85 14.79 13.46C14.9 13.17 15.04 12.73 15.07 11.92C15.11 11.04 15.12 10.78 15.12 8.56C15.12 6.34 15.11 6.08 15.07 5.2C15.0669 4.67429 14.9722 4.15314 14.79 3.66C14.6576 3.29747 14.4476 2.96824 14.1747 2.69533C13.9018 2.42242 13.5726 2.21242 13.21 2.08C12.7169 1.89782 12.1957 1.80306 11.67 1.8C10.5507 1.75043 9.43025 1.73376 8.31 1.75Z" fill="white"/>
<path d="M8.34997 11.43C7.60074 11.43 6.8822 11.1324 6.35241 10.6026C5.82262 10.0728 5.52502 9.35422 5.52502 8.60498C5.52502 7.85575 5.82262 7.1372 6.35241 6.60741C6.8822 6.07762 7.60074 5.77998 8.34997 5.77998C8.73509 5.75706 9.12085 5.81312 9.48352 5.94473C9.84618 6.07633 10.1781 6.28071 10.4589 6.54528C10.7397 6.80986 10.9634 7.12905 11.1163 7.48325C11.2693 7.83745 11.3481 8.21918 11.3481 8.60498C11.3481 8.99079 11.2693 9.37252 11.1163 9.72672C10.9634 10.0809 10.7397 10.4001 10.4589 10.6647C10.1781 10.9293 9.84618 11.1336 9.48352 11.2652C9.12085 11.3968 8.73509 11.4529 8.34997 11.43ZM4 8.59998C3.97174 9.18945 4.06342 9.77851 4.26953 10.3315C4.47564 10.8845 4.79191 11.3898 5.19909 11.817C5.60627 12.2442 6.09589 12.5842 6.63836 12.8166C7.18084 13.0489 7.76484 13.1687 8.35498 13.1687C8.94512 13.1687 9.52912 13.0489 10.0716 12.8166C10.6141 12.5842 11.1037 12.2442 11.5109 11.817C11.9181 11.3898 12.2343 10.8845 12.4404 10.3315C12.6465 9.77851 12.7383 9.18945 12.71 8.59998C12.6564 7.48106 12.1741 6.42572 11.3633 5.65281C10.5524 4.8799 9.47518 4.44873 8.35498 4.44873C7.23477 4.44873 6.15758 4.8799 5.34674 5.65281C4.53589 6.42572 4.05363 7.48106 4 8.59998Z" fill="white"/>
<path d="M14.3699 5.44C14.3674 5.75309 14.2426 6.05278 14.0221 6.2751C13.8016 6.49743 13.503 6.62479 13.1899 6.63C12.9009 6.59245 12.6354 6.45097 12.443 6.23199C12.2506 6.013 12.1445 5.73148 12.1445 5.44C12.1445 5.14852 12.2506 4.867 12.443 4.64801C12.6354 4.42903 12.9009 4.28755 13.1899 4.25C13.8399 4.25 14.3699 4.78 14.3699 5.44Z" fill="white"/>
</g>
<defs>
<clipPath id="clip0_1_682">
<rect width="17" height="17" fill="white" transform="translate(0 0.25)"/>
</clipPath>
</defs>
</svg>
