<svg width="18" height="20" viewBox="0 0 18 20" fill="none" xmlns="http://www.w3.org/2000/svg">
<path d="M0.27002 7.03H3.67999V18.67H0.27002V7.03ZM3.96002 3.35C3.96002 4.5 3.06998 5.45 1.97998 5.45C0.87998 5.45 0 4.5 0 3.35C0 2.19 0.87998 1.25 1.97998 1.25C3.06998 1.25 3.96002 2.19 3.96002 3.35Z" fill="white"/>
<path d="M6 6.53002H9.40002V8.12002H9.45001C9.78825 7.53104 10.2809 7.04559 10.8748 6.71604C11.4686 6.38649 12.1413 6.22536 12.82 6.25002C16.41 6.25002 17.08 8.65002 17.08 11.77V18.13H13.53V12.49C13.53 11.14 13.51 9.41002 11.69 9.41002C9.83 9.41002 9.56 10.88 9.56 12.39V18.13H6.01001L6 6.53002Z" fill="white"/>
</svg>
