<svg width="50" height="50" viewBox="0 0 50 50" fill="none" xmlns="http://www.w3.org/2000/svg">
<g style="mix-blend-mode:multiply">
<path d="M32.85 24.6301C31.977 25.9068 30.8057 26.9513 29.4378 27.673C28.0699 28.3947 26.5466 28.7719 25 28.7719C23.4534 28.7719 21.9301 28.3947 20.5622 27.673C19.1943 26.9513 18.0231 25.9068 17.15 24.6301C15.3655 25.8836 13.9094 27.5487 12.905 29.4844C11.9006 31.4201 11.3775 33.5694 11.38 35.7501V46.8801H38.62V35.7501C38.6225 33.5694 38.0995 31.4201 37.095 29.4844C36.0906 27.5487 34.6345 25.8836 32.85 24.6301V24.6301Z" fill="#6F00FF"/>
</g>
<g style="mix-blend-mode:multiply">
<path d="M32.85 24.6299C33.827 23.2012 34.3956 21.5329 34.4945 19.8049C34.5933 18.0769 34.2187 16.3547 33.411 14.8239C32.6034 13.2931 31.3932 12.0117 29.911 11.1179C28.4288 10.2241 26.7308 9.75171 25 9.75171C23.2692 9.75171 21.5711 10.2241 20.089 11.1179C18.6068 12.0117 17.3966 13.2931 16.5889 14.8239C15.7813 16.3547 15.4067 18.0769 15.5055 19.8049C15.6044 21.5329 16.173 23.2012 17.15 24.6299C19.4442 23.0029 22.1874 22.1289 25 22.1289C27.8126 22.1289 30.5557 23.0029 32.85 24.6299V24.6299Z" fill="#D15187"/>
</g>
<path d="M25 28.7699C26.5465 28.7701 28.0697 28.3932 29.4376 27.6718C30.8055 26.9504 31.9768 25.9062 32.85 24.6299C30.5558 23.0029 27.8126 22.1289 25 22.1289C22.1874 22.1289 19.4443 23.0029 17.15 24.6299C18.0233 25.9062 19.1946 26.9504 20.5625 27.6718C21.9304 28.3932 23.4536 28.7701 25 28.7699V28.7699Z" fill="#A445BB"/>
<path d="M7.75 18.79L11.84 19.25L7.75 19.72V18.79Z" fill="#6F2CFF"/>
<path d="M25.46 2.01001L25 6.09001L24.54 2.01001H25.46Z" fill="#6F2CFF"/>
<path d="M42.25 19.72L38.16 19.25L42.25 18.79V19.72Z" fill="#6F2CFF"/>
</svg>
