<svg width="50" height="50" viewBox="0 0 50 50" fill="none" xmlns="http://www.w3.org/2000/svg">
<path d="M33 26.0699L36.9 29.9999C36.9994 30.1003 37.1178 30.18 37.2483 30.2344C37.3787 30.2887 37.5186 30.3167 37.66 30.3167C37.8013 30.3167 37.9412 30.2887 38.0716 30.2344C38.2021 30.18 38.3205 30.1003 38.42 29.9999L41.18 27.2399V12.9999C41.1813 12.7873 41.1193 12.5791 41.0018 12.4019C40.8843 12.2247 40.7167 12.0865 40.5204 12.0049C40.324 11.9234 40.1078 11.9022 39.8993 11.944C39.6909 11.9859 39.4996 12.0889 39.35 12.2399L28.47 23.1499C28.3705 23.2503 28.2521 23.33 28.1216 23.3844C27.9912 23.4387 27.8513 23.4667 27.71 23.4667C27.5686 23.4667 27.4287 23.4387 27.2983 23.3844C27.1678 23.33 27.0494 23.2503 26.95 23.1499L20.62 16.8199C20.5205 16.7195 20.4021 16.6399 20.2716 16.5855C20.1412 16.5311 20.0013 16.5031 19.86 16.5031C19.7186 16.5031 19.5787 16.5311 19.4483 16.5855C19.3178 16.6399 19.1994 16.7195 19.1 16.8199L3.35995 32.6899C3.21236 32.8401 3.11236 33.0305 3.07247 33.2373C3.03259 33.444 3.05459 33.6579 3.13573 33.8522C3.21687 34.0465 3.35353 34.2126 3.52861 34.3296C3.70369 34.4466 3.90939 34.5093 4.11995 34.5099H23.12L31.49 26.0699C31.6905 25.8702 31.962 25.7581 32.245 25.7581C32.528 25.7581 32.7994 25.8702 33 26.0699Z" fill="#6F00FF"/>
<path d="M45.12 23.26L41.18 27.21V33.43C41.18 33.7138 41.0672 33.9859 40.8666 34.1866C40.6659 34.3873 40.3938 34.5 40.11 34.5H23.11L21.42 36.21C21.269 36.3597 21.1659 36.5509 21.1241 36.7594C21.0822 36.9678 21.1034 37.184 21.185 37.3804C21.2665 37.5768 21.4047 37.7444 21.5819 37.8619C21.7592 37.9793 21.9674 38.0413 22.18 38.04H45.88C46.0222 38.0467 46.1642 38.025 46.2979 37.9761C46.4316 37.9272 46.5541 37.8521 46.6584 37.7553C46.7627 37.6584 46.8467 37.5417 46.9053 37.412C46.964 37.2824 46.9961 37.1423 47 37V24C47.0087 23.7782 46.9481 23.5591 46.8268 23.3733C46.7054 23.1874 46.5293 23.0438 46.3227 22.9625C46.1161 22.8812 45.8894 22.8662 45.6739 22.9195C45.4584 22.9728 45.2648 23.0918 45.12 23.26Z" fill="#D15187"/>
<path d="M41.18 33.43V27.21L38.42 30C38.3205 30.1004 38.2021 30.18 38.0717 30.2344C37.9412 30.2888 37.8013 30.3168 37.66 30.3168C37.5187 30.3168 37.3787 30.2888 37.2483 30.2344C37.1178 30.18 36.9995 30.1004 36.9 30L33 26.07C32.9005 25.9696 32.7821 25.8899 32.6517 25.8355C32.5212 25.7812 32.3813 25.7532 32.24 25.7532C32.0987 25.7532 31.9587 25.7812 31.8283 25.8355C31.6978 25.8899 31.5795 25.9696 31.48 26.07L23.11 34.51H40.11C40.2513 34.51 40.3913 34.482 40.5218 34.4276C40.6523 34.3732 40.7707 34.2935 40.8701 34.1931C40.9696 34.0926 41.0482 33.9735 41.1014 33.8425C41.1546 33.7116 41.1813 33.5713 41.18 33.43Z" fill="#A445BB"/>
</svg>
