<svg width="74" height="52" viewBox="0 0 74 52" fill="none" xmlns="http://www.w3.org/2000/svg">
<path d="M73.8236 23.0656V28.6344C73.8236 34.5813 73.0637 40.5281 73.0637 40.5281C73.0637 40.5281 72.3727 45.5812 70.1618 47.8156C67.3291 50.7375 64.1854 50.7719 62.7344 50.9437C52.4054 51.7 36.8945 51.7 36.8945 51.7C36.8945 51.7 17.7218 51.5281 11.8145 50.9781C10.1563 50.6688 6.49454 50.7375 3.66181 47.8156C1.4509 45.5812 0.72553 40.5281 0.72553 40.5281C0.72553 40.5281 0 34.5813 0 28.6344V23.0656C0 17.1187 0.72553 11.1375 0.72553 11.1375C0.72553 11.1375 1.4509 6.08437 3.66181 3.85C6.49454 0.928121 9.63822 0.928129 11.0546 0.756254C21.3837 4.20026e-06 36.8945 0 36.8945 0H36.9291C36.9291 0 52.4054 4.20026e-06 62.7344 0.756254C64.1854 0.928129 67.3291 0.928121 70.1618 3.85C72.3727 6.08437 73.0637 11.1375 73.0637 11.1375C73.0637 11.1375 73.8236 17.1187 73.8236 23.0656ZM51.9563 25.8844L30.0892 16.3281V35.3719L51.9563 25.8844Z" fill="#F80909"/>
</svg>
